# xmcd
#
# Track frame offsets:
#	187
#	14695
#	29900
#	44325
#	60840
#	75645
#	89952
#	103482
#	117947
#	132622
#	147365
#	163095
#	180717
#	192482
#	208882
#	221467
#	234802
#	250327
#	265992
#	284595
#
# Disc length: 4038 seconds
#
# Revision: 1
# Processed by: cddbd v1.5PL3 Copyright (c) Steve Scherf et al.
# Submitted via: CDex 1.50Beta5
#
DISCID=410fc414
DTITLE=Various Artist - SOUL&DISCO〈筒美京平ULTRA BEST TRACKS〉
DYEAR=1998
DGENRE=Pop
TTITLE0=オリエンタル・エクスプレス/Dr.ドラゴンのテーマ
TTITLE1=岩崎宏美/センチメンタル
TTITLE2=岩崎宏美/未来
TTITLE3=平山三紀/熟れた果実
TTITLE4=優雅/私は忘れない
TTITLE5=優雅/胸さわぎ
TTITLE6=南沙織/GET DOWN BABY
TTITLE7=郷ひろみ/君は特別
TTITLE8=郷ひろみ/恋の弱味
TTITLE9=浅野ゆう子/セクシー・バスストップ
TTITLE10=浅野ゆう子/ムーンライト・タクシー
TTITLE11=シェリー/恋のハッスルジェット
TTITLE12=シェリー/カリブの夢
TTITLE13=山内恵美子/太陽は泣いている
TTITLE14=リンリン・ランラン/恋のインディアン人形
TTITLE15=ベルベッツ/人さわがせ
TTITLE16=麻丘めぐみ/夏八景
TTITLE17=石野真子/日曜日はストレンジャー
TTITLE18=オリエンタル・エクスプレス/ハッスル・ジェット
TTITLE19=オリエンタル・エクスプレス/セクシー・バス・ストップ
EXTD=
EXTT0=
EXTT1=
EXTT2=
EXTT3=
EXTT4=
EXTT5=
EXTT6=
EXTT7=
EXTT8=
EXTT9=
EXTT10=
EXTT11=
EXTT12=
EXTT13=
EXTT14=
EXTT15=
EXTT16=
EXTT17=
EXTT18=
EXTT19=
PLAYORDER=
